<svg width="57" height="56" viewBox="0 0 57 56" fill="none" xmlns="http://www.w3.org/2000/svg">
<path fill-rule="evenodd" clip-rule="evenodd" d="M50.8996 27.9996C50.8996 40.3708 40.8708 50.3996 28.4996 50.3996C16.1284 50.3996 6.09961 40.3708 6.09961 27.9996C6.09961 15.6284 16.1284 5.59961 28.4996 5.59961C40.8708 5.59961 50.8996 15.6284 50.8996 27.9996ZM34.0996 19.5996C34.0996 22.6924 31.5924 25.1996 28.4996 25.1996C25.4068 25.1996 22.8996 22.6924 22.8996 19.5996C22.8996 16.5068 25.4068 13.9996 28.4996 13.9996C31.5924 13.9996 34.0996 16.5068 34.0996 19.5996ZM28.4994 30.7996C22.8503 30.7996 17.9827 34.1455 15.7701 38.9636C18.8509 42.5373 23.411 44.7996 28.4996 44.7996C33.588 44.7996 38.148 42.5374 41.2289 38.9638C39.0163 34.1456 34.1486 30.7996 28.4994 30.7996Z" fill="#111827"/>
</svg>
