<svg width="43" height="63" viewBox="0 0 43 63" fill="none" xmlns="http://www.w3.org/2000/svg">
<path d="M13.2807 62.3353H10.8745V54.3252H5.14745V62.3353H2.74121V51.9189H13.2807V62.3353Z" fill="#821923"/>
<path d="M37.1879 62.3353H34.7817V54.3252H29.0547V62.3353H26.6484V51.9189H37.1879V62.3353Z" fill="#821923"/>
<path d="M24.663 62.3969H15.3467V59.9907H22.2567V54.2637H15.3467V51.8574H24.663V62.3969Z" fill="#821923"/>
<path d="M2.61189 39.9433L2.57812 33.2013L15.1946 20.3778L0 0H38.0984L38.1664 8.99818L34.1547 4.84156H9.46977L21.5224 20.8084L2.61189 39.9433Z" fill="#821923"/>
<path d="M38.1654 44.6478L2.65192 44.5952L2.64551 43.5524L23.3436 23.1768L26.324 27.0905L13.7861 39.8221L34.016 39.8511L38.1654 35.8809V44.6478Z" fill="#821923"/>
<path d="M32.7364 57.0322H29.9385V59.6591H32.7364V57.0322Z" fill="#821923"/>
<path d="M37.2137 48.2383H34.7578V50.8651H37.2137V48.2383Z" fill="#821923"/>
<path d="M42.7196 59.8301H40.0928V62.2859H42.7196V59.8301Z" fill="#821923"/>
</svg>
