<svg width="38" height="56" viewBox="0 0 38 56" fill="none" xmlns="http://www.w3.org/2000/svg">
<g id="Group 63">
<path id="Vector" d="M11.8141 55.6963H9.67372V48.5711H4.57938V55.6963H2.43896V46.4307H11.8141V55.6963Z" fill="white"/>
<path id="Vector_2" d="M33.0803 55.6963H30.9398V48.5711H25.8455V55.6963H23.7051V46.4307H33.0803V55.6963Z" fill="white"/>
<path id="Vector_3" d="M21.9385 55.7521H13.6514V53.6117H19.798V48.5174H13.6514V46.377H21.9385V55.7521Z" fill="white"/>
<path id="Vector_4" d="M2.32335 35.7777L2.29331 29.7805L13.5161 18.3737L0 0.24707H33.8896L33.9501 8.2512L30.3815 4.55377H8.42362L19.1447 18.7567L2.32335 35.7777Z" fill="white"/>
<path id="Vector_5" d="M33.9494 39.9624L2.35922 39.9156L2.35352 38.988L20.765 20.8633L23.4162 24.3447L12.2634 35.6698L30.2584 35.6956L33.9494 32.164V39.9624Z" fill="white"/>
<path id="Vector_6" d="M29.1197 50.9795H26.6309V53.3162H29.1197V50.9795Z" fill="white"/>
<path id="Vector_7" d="M33.102 43.1562H30.9175V45.4929H33.102V43.1562Z" fill="white"/>
<path id="Vector_8" d="M37.9998 53.4678H35.6631V55.6523H37.9998V53.4678Z" fill="white"/>
</g>
</svg>
