<svg width="125" height="87" viewBox="0 0 125 87" fill="none" xmlns="http://www.w3.org/2000/svg">
<path d="M55.3141 55.4492H53.1737V48.324H48.0794V55.4492H45.939V46.1836H55.3141V55.4492Z" fill="white"/>
<path d="M76.5805 55.4492H74.4401V48.324H69.3457V55.4492H67.2053V46.1836H76.5805V55.4492Z" fill="white"/>
<path d="M65.4382 55.5051H57.1511V53.3646H63.2978V48.2703H57.1511V46.1299H65.4382V55.5051Z" fill="white"/>
<path d="M45.8234 35.5307L45.7933 29.5334L57.0161 18.1266L43.5 0H77.3896L77.4501 8.00413L73.8815 4.3067H51.9236L62.6447 18.5096L45.8234 35.5307Z" fill="white"/>
<path d="M77.4492 39.7153L45.859 39.6685L45.8533 38.7409L64.2648 20.6162L66.9159 24.0976L55.7632 35.4227L73.7582 35.4485L77.4492 31.9169V39.7153Z" fill="white"/>
<path d="M72.6199 50.7324H70.1311V53.0691H72.6199V50.7324Z" fill="white"/>
<path d="M76.6023 42.9092H74.4177V45.2458H76.6023V42.9092Z" fill="white"/>
<path d="M81.5 53.2207H79.1633V55.4052H81.5V53.2207Z" fill="white"/>
<path d="M4.45455 83.5049H1.00426V73.3231H4.52415C5.53504 73.3231 6.40341 73.5269 7.12926 73.9346C7.85843 74.3389 8.41856 74.9206 8.80966 75.6796C9.20076 76.4386 9.39631 77.3467 9.39631 78.404C9.39631 79.4646 9.1991 80.3761 8.80469 81.1384C8.41359 81.9007 7.84849 82.4857 7.10938 82.8934C6.37358 83.301 5.48864 83.5049 4.45455 83.5049ZM2.84872 81.909H4.36506C5.07434 81.909 5.66596 81.7797 6.13991 81.5212C6.61387 81.2594 6.97017 80.8699 7.20881 80.3529C7.44744 79.8325 7.56676 79.1829 7.56676 78.404C7.56676 77.6251 7.44744 76.9788 7.20881 76.4651C6.97017 75.9481 6.61719 75.5619 6.14986 75.3067C5.68584 75.0482 5.10914 74.9189 4.41974 74.9189H2.84872V81.909ZM14.4002 83.654C13.6545 83.654 13.0082 83.49 12.4613 83.1618C11.9144 82.8337 11.4902 82.3747 11.1886 81.7847C10.8903 81.1948 10.7411 80.5054 10.7411 79.7165C10.7411 78.9277 10.8903 78.2367 11.1886 77.6434C11.4902 77.0501 11.9144 76.5894 12.4613 76.2613C13.0082 75.9331 13.6545 75.7691 14.4002 75.7691C15.146 75.7691 15.7923 75.9331 16.3391 76.2613C16.886 76.5894 17.3086 77.0501 17.6069 77.6434C17.9085 78.2367 18.0593 78.9277 18.0593 79.7165C18.0593 80.5054 17.9085 81.1948 17.6069 81.7847C17.3086 82.3747 16.886 82.8337 16.3391 83.1618C15.7923 83.49 15.146 83.654 14.4002 83.654ZM14.4102 82.2123C14.8145 82.2123 15.1526 82.1012 15.4244 81.8792C15.6961 81.6538 15.8983 81.3522 16.0309 80.9743C16.1668 80.5965 16.2347 80.1756 16.2347 79.7116C16.2347 79.2442 16.1668 78.8216 16.0309 78.4438C15.8983 78.0626 15.6961 77.7594 15.4244 77.534C15.1526 77.3086 14.8145 77.1959 14.4102 77.1959C13.9959 77.1959 13.6512 77.3086 13.3761 77.534C13.1043 77.7594 12.9004 78.0626 12.7646 78.4438C12.632 78.8216 12.5657 79.2442 12.5657 79.7116C12.5657 80.1756 12.632 80.5965 12.7646 80.9743C12.9004 81.3522 13.1043 81.6538 13.3761 81.8792C13.6512 82.1012 13.9959 82.2123 14.4102 82.2123ZM22.9178 83.654C22.1555 83.654 21.5009 83.4867 20.954 83.1519C20.4105 82.8171 19.9912 82.3548 19.6962 81.7648C19.4045 81.1715 19.2587 80.4888 19.2587 79.7165C19.2587 78.941 19.4078 78.2565 19.7061 77.6633C20.0044 77.0667 20.4254 76.6027 20.9689 76.2712C21.5158 75.9365 22.1621 75.7691 22.9078 75.7691C23.5276 75.7691 24.0762 75.8834 24.5534 76.1121C25.034 76.3375 25.4168 76.6573 25.7019 77.0716C25.9869 77.4826 26.1493 77.9632 26.1891 78.5134H24.4689C24.3993 78.1455 24.2336 77.8389 23.9718 77.5937C23.7132 77.3451 23.3669 77.2208 22.9327 77.2208C22.5648 77.2208 22.2417 77.3202 21.9632 77.5191C21.6848 77.7146 21.4677 77.9964 21.312 78.3643C21.1595 78.7322 21.0833 79.173 21.0833 79.6867C21.0833 80.2071 21.1595 80.6545 21.312 81.029C21.4644 81.4002 21.6782 81.6869 21.9533 81.8891C22.2317 82.088 22.5582 82.1874 22.9327 82.1874C23.1979 82.1874 23.4348 82.1377 23.6436 82.0383C23.8558 81.9355 24.0331 81.788 24.1756 81.5958C24.3181 81.4036 24.4159 81.1699 24.4689 80.8948H26.1891C26.146 81.435 25.9869 81.914 25.7118 82.3316C25.4367 82.7459 25.0622 83.0707 24.5882 83.306C24.1143 83.538 23.5575 83.654 22.9178 83.654ZM32.5341 80.2932V75.8685H34.3338V83.5049H32.5888V82.1476H32.5092C32.3369 82.5752 32.0535 82.9249 31.6591 83.1966C31.268 83.4684 30.7857 83.6043 30.2124 83.6043C29.7119 83.6043 29.2694 83.4933 28.8849 83.2712C28.5038 83.0458 28.2055 82.7194 27.9901 82.2918C27.7746 81.8609 27.6669 81.3406 27.6669 80.7307V75.8685H29.4666V80.4523C29.4666 80.9362 29.5992 81.3207 29.8643 81.6057C30.1295 81.8908 30.4775 82.0333 30.9084 82.0333C31.1735 82.0333 31.4304 81.9687 31.679 81.8394C31.9276 81.7101 32.1314 81.5179 32.2905 81.2627C32.4529 81.0042 32.5341 80.681 32.5341 80.2932ZM36.1845 83.5049V75.8685H37.9047V77.1661H37.9941C38.1532 76.7286 38.4167 76.3872 38.7846 76.142C39.1525 75.8934 39.5917 75.7691 40.1021 75.7691C40.6191 75.7691 41.055 75.895 41.4096 76.1469C41.7676 76.3955 42.0195 76.7352 42.1653 77.1661H42.2449C42.4139 76.7419 42.6989 76.4038 43.1 76.1519C43.5043 75.8967 43.9833 75.7691 44.5368 75.7691C45.2394 75.7691 45.8128 75.9912 46.2569 76.4353C46.7011 76.8794 46.9231 77.5274 46.9231 78.3792V83.5049H45.1184V78.6576C45.1184 78.1836 44.9925 77.8373 44.7406 77.6185C44.4887 77.3965 44.1805 77.2854 43.8159 77.2854C43.3817 77.2854 43.042 77.4213 42.7967 77.6931C42.5547 77.9616 42.4338 78.3112 42.4338 78.7421V83.5049H40.6689V78.583C40.6689 78.1886 40.5495 77.8737 40.3109 77.6384C40.0756 77.4031 39.7673 77.2854 39.3862 77.2854C39.1277 77.2854 38.8923 77.3517 38.6802 77.4843C38.4681 77.6135 38.2991 77.7975 38.1731 78.0361C38.0472 78.2715 37.9842 78.5465 37.9842 78.8614V83.5049H36.1845ZM52.1296 83.654C51.364 83.654 50.7028 83.4949 50.146 83.1768C49.5924 82.8553 49.1665 82.4012 48.8683 81.8145C48.57 81.2246 48.4208 80.5302 48.4208 79.7314C48.4208 78.9459 48.57 78.2565 48.8683 77.6633C49.1699 77.0667 49.5908 76.6027 50.131 76.2712C50.6713 75.9365 51.306 75.7691 52.0352 75.7691C52.5058 75.7691 52.9499 75.8453 53.3675 75.9978C53.7885 76.1469 54.1597 76.3789 54.4812 76.6938C54.806 77.0087 55.0612 77.4097 55.2468 77.8969C55.4324 78.3808 55.5252 78.9575 55.5252 79.627V80.1789H49.266V78.9658H53.8001C53.7968 78.6211 53.7222 78.3145 53.5763 78.0461C53.4305 77.7743 53.2267 77.5605 52.9648 77.4047C52.7063 77.249 52.4047 77.1711 52.06 77.1711C51.6921 77.1711 51.369 77.2606 51.0906 77.4395C50.8121 77.6152 50.5951 77.8472 50.4393 78.1356C50.2868 78.4206 50.2089 78.7338 50.2056 79.0752V80.1341C50.2056 80.5783 50.2868 80.9594 50.4492 81.2776C50.6116 81.5925 50.8387 81.8344 51.1303 82.0035C51.422 82.1692 51.7634 82.252 52.1545 82.252C52.4163 82.252 52.6533 82.2156 52.8654 82.1427C53.0775 82.0664 53.2615 81.9554 53.4173 81.8096C53.573 81.6637 53.6907 81.4831 53.7702 81.2677L55.4506 81.4566C55.3446 81.9007 55.1424 82.2885 54.8441 82.6199C54.5491 82.9481 54.1713 83.2033 53.7106 83.3856C53.2499 83.5645 52.7229 83.654 52.1296 83.654ZM58.8475 79.0305V83.5049H57.0478V75.8685H58.7679V77.1661H58.8574C59.0331 76.7385 59.3132 76.3988 59.6976 76.1469C60.0854 75.895 60.5643 75.7691 61.1344 75.7691C61.6614 75.7691 62.1204 75.8818 62.5115 76.1072C62.906 76.3325 63.2109 76.659 63.4263 77.0866C63.6451 77.5141 63.7528 78.0328 63.7495 78.6427V83.5049H61.9498V78.9211C61.9498 78.4107 61.8172 78.0113 61.552 77.7229C61.2902 77.4346 60.9273 77.2904 60.4632 77.2904C60.1484 77.2904 59.8683 77.36 59.623 77.4992C59.3811 77.6351 59.1905 77.8323 59.0513 78.0908C58.9154 78.3493 58.8475 78.6626 58.8475 79.0305ZM69.3922 75.8685V77.2606H65.0023V75.8685H69.3922ZM66.0861 74.039H67.8858V81.208C67.8858 81.45 67.9223 81.6356 67.9952 81.7648C68.0714 81.8908 68.1709 81.9769 68.2935 82.0233C68.4161 82.0698 68.552 82.093 68.7012 82.093C68.8139 82.093 68.9166 82.0847 69.0094 82.0681C69.1055 82.0515 69.1784 82.0366 69.2282 82.0233L69.5314 83.4303C69.4353 83.4635 69.2978 83.4999 69.1188 83.5397C68.9431 83.5795 68.7277 83.6027 68.4725 83.6093C68.0217 83.6225 67.6157 83.5546 67.2544 83.4055C66.8932 83.253 66.6065 83.0177 66.3944 82.6995C66.1855 82.3813 66.0828 81.9836 66.0861 81.5063V74.039ZM79.983 76.1221C79.9366 75.6879 79.741 75.3498 79.3963 75.1079C79.0549 74.8659 78.6108 74.7449 78.0639 74.7449C77.6795 74.7449 77.3497 74.8029 77.0746 74.9189C76.7995 75.0349 76.589 75.1924 76.4432 75.3912C76.2973 75.5901 76.2228 75.8171 76.2195 76.0724C76.2195 76.2845 76.2675 76.4684 76.3636 76.6242C76.4631 76.78 76.5973 76.9126 76.7663 77.0219C76.9354 77.128 77.1226 77.2175 77.3281 77.2904C77.5336 77.3633 77.7408 77.4246 77.9496 77.4743L78.9041 77.713C79.2886 77.8025 79.6581 77.9234 80.0128 78.0759C80.3707 78.2284 80.6906 78.4206 80.9723 78.6526C81.2573 78.8846 81.4827 79.1647 81.6484 79.4928C81.8142 79.8209 81.897 80.2054 81.897 80.6462C81.897 81.2428 81.7446 81.7681 81.4396 82.2222C81.1347 82.673 80.6939 83.026 80.1172 83.2812C79.5438 83.5331 78.8494 83.659 78.0341 83.659C77.242 83.659 76.5542 83.5364 75.9709 83.2911C75.3909 83.0458 74.9368 82.6879 74.6087 82.2172C74.2839 81.7466 74.1082 81.1732 74.0817 80.4971H75.8963C75.9228 80.8517 76.0322 81.1467 76.2244 81.382C76.4167 81.6173 76.6669 81.793 76.9751 81.909C77.2867 82.025 77.6347 82.083 78.0192 82.083C78.4202 82.083 78.7715 82.0233 79.0732 81.904C79.3781 81.7814 79.6167 81.6124 79.7891 81.3969C79.9614 81.1782 80.0492 80.923 80.0526 80.6313C80.0492 80.3662 79.9714 80.1474 79.8189 79.9751C79.6664 79.7994 79.4527 79.6536 79.1776 79.5376C78.9058 79.4182 78.5876 79.3122 78.223 79.2194L77.0646 78.9211C76.2261 78.7056 75.5632 78.3792 75.076 77.9417C74.5921 77.5009 74.3501 76.9159 74.3501 76.1867C74.3501 75.5868 74.5125 75.0615 74.8374 74.6107C75.1655 74.1599 75.6113 73.8103 76.1747 73.5617C76.7382 73.3098 77.3762 73.1839 78.0888 73.1839C78.8113 73.1839 79.4444 73.3098 79.9879 73.5617C80.5348 73.8103 80.964 74.1566 81.2756 74.6008C81.5871 75.0416 81.7479 75.5487 81.7578 76.1221H79.983ZM84.5804 86.3685C84.3352 86.3685 84.1081 86.3486 83.8993 86.3089C83.6938 86.2724 83.5298 86.2293 83.4071 86.1796L83.8248 84.7776C84.0866 84.8538 84.3203 84.8903 84.5257 84.887C84.7312 84.8837 84.9119 84.819 85.0676 84.6931C85.2267 84.5705 85.361 84.365 85.4703 84.0766L85.6245 83.664L82.8553 75.8685H84.7644L86.5243 81.6356H86.6039L88.3688 75.8685H90.2828L87.2253 84.4296C87.0828 84.834 86.8939 85.1803 86.6586 85.4687C86.4232 85.7603 86.1349 85.9824 85.7935 86.1349C85.4554 86.2906 85.0511 86.3685 84.5804 86.3685ZM97.5637 77.887L95.9231 78.066C95.8767 77.9002 95.7955 77.7445 95.6795 77.5986C95.5668 77.4528 95.4144 77.3351 95.2221 77.2456C95.0299 77.1562 94.7946 77.1114 94.5162 77.1114C94.1416 77.1114 93.8268 77.1926 93.5716 77.355C93.3197 77.5174 93.1954 77.7279 93.1987 77.9864C93.1954 78.2085 93.2766 78.3891 93.4423 78.5283C93.6113 78.6675 93.8897 78.7819 94.2775 78.8714L95.5801 79.1498C96.3026 79.3055 96.8395 79.5525 97.1909 79.8905C97.5455 80.2286 97.7245 80.6711 97.7278 81.218C97.7245 81.6985 97.5836 82.1228 97.3052 82.4907C97.0301 82.8553 96.6473 83.1403 96.1568 83.3458C95.6663 83.5513 95.1028 83.654 94.4664 83.654C93.5318 83.654 92.7794 83.4585 92.2093 83.0674C91.6393 82.673 91.2995 82.1244 91.1902 81.4218L92.9451 81.2528C93.0247 81.5974 93.1937 81.8576 93.4522 82.0333C93.7108 82.209 94.0472 82.2968 94.4615 82.2968C94.889 82.2968 95.2321 82.209 95.4906 82.0333C95.7524 81.8576 95.8833 81.6405 95.8833 81.382C95.8833 81.1633 95.7988 80.9826 95.6298 80.8401C95.4641 80.6976 95.2056 80.5882 94.8542 80.512L93.5517 80.2385C92.8192 80.0861 92.2773 79.8292 91.926 79.468C91.5746 79.1034 91.4006 78.6427 91.4039 78.0858C91.4006 77.6152 91.5282 77.2075 91.7868 76.8628C92.0486 76.5148 92.4115 76.2464 92.8755 76.0574C93.3429 75.8652 93.8815 75.7691 94.4913 75.7691C95.3862 75.7691 96.0905 75.9597 96.6042 76.3408C97.1213 76.722 97.4411 77.2374 97.5637 77.887ZM103.025 75.8685V77.2606H98.6351V75.8685H103.025ZM99.7189 74.039H101.519V81.208C101.519 81.45 101.555 81.6356 101.628 81.7648C101.704 81.8908 101.804 81.9769 101.926 82.0233C102.049 82.0698 102.185 82.093 102.334 82.093C102.447 82.093 102.549 82.0847 102.642 82.0681C102.738 82.0515 102.811 82.0366 102.861 82.0233L103.164 83.4303C103.068 83.4635 102.931 83.4999 102.752 83.5397C102.576 83.5795 102.36 83.6027 102.105 83.6093C101.655 83.6225 101.249 83.5546 100.887 83.4055C100.526 83.253 100.239 83.0177 100.027 82.6995C99.8184 82.3813 99.7156 81.9836 99.7189 81.5063V74.039ZM107.829 83.654C107.063 83.654 106.402 83.4949 105.845 83.1768C105.292 82.8553 104.866 82.4012 104.567 81.8145C104.269 81.2246 104.12 80.5302 104.12 79.7314C104.12 78.9459 104.269 78.2565 104.567 77.6633C104.869 77.0667 105.29 76.6027 105.83 76.2712C106.371 75.9365 107.005 75.7691 107.734 75.7691C108.205 75.7691 108.649 75.8453 109.067 75.9978C109.488 76.1469 109.859 76.3789 110.18 76.6938C110.505 77.0087 110.76 77.4097 110.946 77.8969C111.132 78.3808 111.224 78.9575 111.224 79.627V80.1789H104.965V78.9658H109.499C109.496 78.6211 109.421 78.3145 109.276 78.0461C109.13 77.7743 108.926 77.5605 108.664 77.4047C108.406 77.249 108.104 77.1711 107.759 77.1711C107.391 77.1711 107.068 77.2606 106.79 77.4395C106.511 77.6152 106.294 77.8472 106.138 78.1356C105.986 78.4206 105.908 78.7338 105.905 79.0752V80.1341C105.905 80.5783 105.986 80.9594 106.148 81.2776C106.311 81.5925 106.538 81.8344 106.83 82.0035C107.121 82.1692 107.463 82.252 107.854 82.252C108.116 82.252 108.353 82.2156 108.565 82.1427C108.777 82.0664 108.961 81.9554 109.116 81.8096C109.272 81.6637 109.39 81.4831 109.469 81.2677L111.15 81.4566C111.044 81.9007 110.842 82.2885 110.543 82.6199C110.248 82.9481 109.871 83.2033 109.41 83.3856C108.949 83.5645 108.422 83.654 107.829 83.654ZM112.747 83.5049V75.8685H114.467V77.1661H114.557C114.716 76.7286 114.979 76.3872 115.347 76.142C115.715 75.8934 116.154 75.7691 116.665 75.7691C117.182 75.7691 117.617 75.895 117.972 76.1469C118.33 76.3955 118.582 76.7352 118.728 77.1661H118.807C118.976 76.7419 119.261 76.4038 119.662 76.1519C120.067 75.8967 120.546 75.7691 121.099 75.7691C121.802 75.7691 122.375 75.9912 122.819 76.4353C123.264 76.8794 123.486 77.5274 123.486 78.3792V83.5049H121.681V78.6576C121.681 78.1836 121.555 77.8373 121.303 77.6185C121.051 77.3965 120.743 77.2854 120.378 77.2854C119.944 77.2854 119.604 77.4213 119.359 77.6931C119.117 77.9616 118.996 78.3112 118.996 78.7421V83.5049H117.231V78.583C117.231 78.1886 117.112 77.8737 116.873 77.6384C116.638 77.4031 116.33 77.2854 115.949 77.2854C115.69 77.2854 115.455 77.3517 115.243 77.4843C115.031 77.6135 114.862 77.7975 114.736 78.0361C114.61 78.2715 114.547 78.5465 114.547 78.8614V83.5049H112.747Z" fill="white"/>
</svg>
